PathFileType	4	(X/Y/Z)	Patient4_TMGait_0pt6_01_right_07.trc.trc
DataRate	CameraRate	NumFrames	NumMarkers	Units	OrigDataRate	OrigDataStartFrame	OrigNumFrames
83.832335329341	83.832335329341	4	33	mm	83.832335329341	89	       141
Frame#	Time	Sacral			L.Shoulder			Chest			R.Shoulder			Neck			R.ASIS			L.ASIS			R.Thigh.Superior			R.Thigh.Lateral			R.Thigh.Inferior			R.Patella			L.Thigh.Superior			L.Thigh.Lateral			L.Thigh.Inferior			L.Patella			L.Shank.Superior			L.Shank.Lateral			L.Shank.Inferior			R.Shank.Superior			R.Shank.Lateral			R.Shank.Inferior			R.Heel			R.Midfoot.Superior			R.Midfoot.Lateral			R.Toe			L.Heel			L.Midfoot.Lateral			L.Midfoot.Superior			L.Toe			L.Elbow			L.Wrist			R.Elbow			R.Wrist			
		X1	Y1	Z1	X2	Y2	Z2	X3	Y3	Z3	X4	Y4	Z4	X5	Y5	Z5	X6	Y6	Z6	X7	Y7	Z7	X8	Y8	Z8	X9	Y9	Z9	X10	Y10	Z10	X11	Y11	Z11	X12	Y12	Z12	X13	Y13	Z13	X14	Y14	Z14	X15	Y15	Z15	X16	Y16	Z16	X17	Y17	Z17	X18	Y18	Z18	X19	Y19	Z19	X20	Y20	Z20	X21	Y21	Z21	X22	Y22	Z22	X23	Y23	Z23	X24	Y24	Z24	X25	Y25	Z25	X26	Y26	Z26	X27	Y27	Z27	X28	Y28	Z28	X29	Y29	Z29	X30	Y30	Z30	X31	Y31	Z31	X32	Y32	Z32	X33	Y33	Z33	

89	8.979714285714	665.627616985986	1002.334090895092	471.476343615077	801.030313937509	1432.124061856219	279.355748427712	924.127145072029	1370.010537222737	428.756160034759	854.913141149910	1442.246542523616	608.655462075538	798.444704676615	1491.795774086706	432.567726331002	897.310332505515	935.860266614916	572.832280425428	870.556564893806	961.972704973587	301.439174232510	930.934475221257	728.298739321908	546.555654867748	848.548443794969	618.324743610819	606.935981714611	927.296073744670	559.887197087926	530.351790194731	913.805236810474	448.816021171559	545.506386686399	936.987168525345	760.601303223438	328.201501244780	857.976590204330	636.643751996530	273.537622054044	952.963326084997	568.227218600967	333.048458963792	960.256945838480	498.971562258951	342.070333641272	940.135183565571	424.938045777923	335.942439367204	859.051477472105	301.483000399744	294.456283151582	927.237681134758	197.764630848206	362.292891819284	832.862121361372	385.022716208145	546.912907095253	710.716821100356	347.359092570056	606.046422320477	691.037252533067	243.160454475395	549.437807378227	485.011452125568	181.795084591088	514.807683885643	655.204635915457	132.905787643140	561.306258095166	544.903307942482	128.685961058478	591.661798202307	723.146010526561	32.824536055921	594.233873516839	815.672316028199	37.338396018444	416.989304743626	882.354951761155	35.154464957865	329.559039920890	965.948949179235	97.874095586579	348.788364083947	1092.088129270461	50.022743227210	310.485019989294	746.410012023297	1076.867547834093	178.100410255082	787.784136927382	820.573962235152	175.509707258024	922.178781585283	1101.625614200527	729.290543932072	1162.599735656156	1031.536987065097	679.927606923130	
90	8.991642857143	665.059147264704	1002.586012430504	469.463207502336	803.411925197764	1432.622922488830	277.682995056320	924.861062930456	1370.323191506531	428.338648772086	854.017303543655	1442.616353136495	607.614704172365	799.322300716802	1492.438737599316	430.860164527993	896.666847405279	936.343943134914	572.025960425226	870.789312442826	962.609190260190	300.496128020218	936.413340174741	731.569661848892	545.391037004477	858.105828968243	619.609175547683	606.240160609188	938.723138176464	562.993501086974	529.683344663261	927.368792200096	450.635317830941	545.330545457844	935.439054416361	759.713442082940	326.453954082778	855.215010669226	636.751002319147	272.511668694881	949.202222329442	567.454551825541	332.330604678243	955.677236730469	498.279729401875	341.555199012233	935.257101956570	424.407996722764	335.411162666222	853.581457152601	301.377507058518	294.081021360171	920.856541077398	197.384535567471	362.231760568503	844.779225999020	387.284783168715	546.407960465662	721.210409388394	353.375321397673	605.094281969896	698.527548851089	249.752018335110	548.751787296321	490.990769152092	196.744822521345	513.853293008468	658.923947488160	139.612499208896	560.430275644801	548.275691193815	140.661011425666	590.743935224647	721.959957899352	34.384101243746	593.534108241444	808.448924324022	37.282826913580	416.954149462507	875.109934534447	35.074406350758	329.525673406725	958.806519917155	97.654564498619	348.840173399245	1084.911879665088	49.701426712051	310.425803272404	754.807173368069	1076.954987738115	173.939758407576	805.170513292253	822.093966700524	170.664557307981	912.112943419539	1100.230207712338	728.817051337040	1149.432325598642	1018.445998344083	680.617388308417	
91	9.003571428571	664.387632007302	1002.709238266960	467.542611640983	805.614094516544	1433.030986336215	276.253862734101	925.464336854483	1370.510519385711	428.093007199544	853.038067574653	1442.755492153744	606.804049853402	800.138730526737	1493.000967775355	429.364262453094	895.923284050910	936.710443731639	571.218457150412	870.901278339429	963.141866062412	299.543025555607	941.590890343616	735.040018389228	544.017547842915	867.594297494341	621.299158001355	605.597612864084	949.783890426847	566.596074975427	528.869951564702	940.844042272333	453.098895913173	544.996288754659	933.908577548331	758.921297836298	325.026812029717	852.657482470204	636.884508518031	271.507595614846	945.590294093708	566.735700561313	331.721899513592	951.256785335483	497.603937839580	341.128293816681	930.525496221680	423.877029185492	334.958387057332	848.257052067055	301.295699647471	293.689531779642	914.552010268472	197.000471627156	362.195737118565	856.884284896640	389.961980855197	545.881852354496	732.149863769195	359.338322332566	604.160840128971	706.862666708357	256.271332254108	548.044638494243	498.273966722979	210.505433711639	512.915672682774	663.986672069192	146.360558477964	559.492329428537	553.226653540008	151.928307179149	589.802772720158	722.706307693244	36.698848314520	592.725010937762	801.238331475659	37.241237505379	416.908408761665	867.885247457217	35.006327263696	329.490140608209	951.692284882103	97.448070736061	348.895973794213	1077.759316754476	49.366364185552	310.375810150369	763.282709479837	1077.146812248326	169.811845998857	823.033182509153	824.108785301602	165.916872583562	901.793501683585	1098.729902654312	728.248239367973	1135.248985869877	1004.812022440757	681.425834604101	
92	9.015500000000	663.666845730153	1002.780044948323	465.703575437029	807.597089000799	1433.416056857212	275.085368439817	925.931306987097	1370.637498870986	428.004995120389	852.002752330152	1442.725627273376	606.218048663290	800.884693308555	1493.525463888178	428.104709493864	895.096272978992	937.034149420516	570.389538938189	870.947010729628	963.619123425675	298.576313910011	946.393959544159	738.707860331313	542.456495831078	876.857836890293	623.414281665242	605.009002446965	960.355720791704	570.684954121770	527.953801027970	954.089970025120	456.206032783207	544.562290318560	932.446080762679	758.230858895223	323.873329257658	850.243227030765	637.040733226720	270.546255878973	942.096037849974	566.056630989975	331.197728741531	946.970247227839	496.947771859994	340.791148007672	925.910760034301	423.354659645423	334.587401402566	843.037036543140	301.248018168185	293.302824006401	908.303702818615	196.622886748015	362.183221397153	869.070965571469	393.035458024171	545.374722615154	743.417544511729	365.107730001200	603.281670305974	716.033815573811	262.516373840180	547.357877036902	506.794818598375	222.611552685134	512.003927261200	670.503930143032	152.871733966549	558.564265613488	559.781654625286	162.056219963303	588.860963094432	725.645183158362	39.650339857942	591.863043920553	794.036212539671	37.211753899971	416.854628843673	860.677222805071	34.952924625982	329.452523184591	944.593878160622	97.264889322526	348.952878288012	1070.621138678953	49.042014620530	310.333257682435	771.839909162637	1077.511711795269	165.767474110803	841.288106088725	826.727978056785	161.326929845543	891.303078678202	1097.199034270248	727.560865730290	1120.005035165991	990.710415273753	682.352194674642	
